<?xml version="1.0" standalone="no"?>
<!DOCTYPE svg PUBLIC "-//W3C//DTD SVG 20010904//EN"
 "http://www.w3.org/TR/2001/REC-SVG-20010904/DTD/svg10.dtd">
<svg version="1.0" xmlns="http://www.w3.org/2000/svg"
 width="16.000000pt" height="16.000000pt" viewBox="0 0 16.000000 16.000000"
 preserveAspectRatio="xMidYMid meet">
<metadata>
Created by potrace 1.11, written by Peter Selinger 2001-2013
</metadata>
<g transform="translate(0.000000,16.000000) scale(0.010667,-0.010667)"
fill="#000000" stroke="none">
<path d="M0 750 l0 -750 750 0 750 0 0 750 0 750 -750 0 -750 0 0 -750z m774
228 c8 -30 8 -376 0 -405 -8 -30 -40 -30 -48 0 -8 29 -8 375 0 405 4 12 14 22
24 22 10 0 20 -10 24 -22z m-199 -128 c-3 -5 -12 -10 -18 -10 -21 0 -122 -114
-148 -166 -21 -43 -24 -63 -24 -159 0 -101 2 -114 29 -165 139 -268 525 -274
665 -10 28 52 34 76 39 145 3 49 0 103 -7 132 -18 71 -85 165 -149 207 -60 40
-62 43 -8 21 39 -17 150 -121 141 -134 -2 -5 1 -14 9 -20 24 -20 51 -123 50
-196 -1 -204 -142 -364 -349 -396 -187 -30 -366 81 -435 266 -50 138 -13 310
91 415 54 54 135 104 114 70z"/>
</g>
</svg>
